<svg xmlns="http://www.w3.org/2000/svg" viewBox="0 0 500 500"><g id="freepik--Shadow--inject-269"><ellipse cx="250" cy="429.55" rx="172.28" ry="15.85" style="fill:#ebebeb"></ellipse></g><g id="freepik--Coupon--inject-269"><path d="M368,366.71A25.3,25.3,0,0,0,393.25,392v32.44H106.75V392a25.3,25.3,0,1,0,0-50.59V278.74h286.5v62.67A25.3,25.3,0,0,0,368,366.71Z" style="fill:#FFC727"></path><path d="M393.25,392v32.44H106.75V392a25.3,25.3,0,0,0,25.3-25.29H368A25.3,25.3,0,0,0,393.25,392Z" style="fill:#fff;opacity:0.30000000000000004"></path><g style="opacity:0.2"><path d="M134.05,367.7h-2a1,1,0,0,1,0-2h2a1,1,0,0,1,0,2Z"></path><path d="M356.88,367.7h-4a1,1,0,0,1,0-2h4a1,1,0,0,1,0,2Zm-13.11,0h-4a1,1,0,0,1,0-2h4a1,1,0,0,1,0,2Zm-13.11,0h-4a1,1,0,0,1,0-2h4a1,1,0,0,1,0,2Zm-13.11,0h-4a1,1,0,0,1,0-2h4a1,1,0,0,1,0,2Zm-13.1,0h-4a1,1,0,0,1,0-2h4a1,1,0,0,1,0,2Zm-13.11,0h-4a1,1,0,0,1,0-2h4a1,1,0,0,1,0,2Zm-13.11,0h-4a1,1,0,0,1,0-2h4a1,1,0,0,1,0,2Zm-13.11,0h-4a1,1,0,0,1,0-2h4a1,1,0,0,1,0,2Zm-13.1,0h-4a1,1,0,1,1,0-2h4a1,1,0,1,1,0,2Zm-13.11,0h-4a1,1,0,1,1,0-2h4a1,1,0,1,1,0,2Zm-13.11,0h-4a1,1,0,0,1,0-2h4a1,1,0,0,1,0,2Zm-13.11,0h-4a1,1,0,0,1,0-2h4a1,1,0,0,1,0,2Zm-13.1,0h-4a1,1,0,0,1,0-2h4a1,1,0,0,1,0,2Zm-13.11,0h-4a1,1,0,0,1,0-2h4a1,1,0,0,1,0,2Zm-13.11,0h-4a1,1,0,1,1,0-2h4a1,1,0,0,1,0,2Zm-13.1,0h-4a1,1,0,1,1,0-2h4a1,1,0,1,1,0,2Zm-13.11,0h-4a1,1,0,0,1,0-2h4a1,1,0,1,1,0,2Z"></path><path d="M368,367.7h-2a1,1,0,0,1,0-2h2a1,1,0,0,1,0,2Z"></path></g></g><g id="freepik--Symbol--inject-269"><path d="M217.47,336.82v-.19c0-9,6.17-16.47,15.28-16.47s15.1,7.45,15.1,16.29v.18c0,8.93-6.08,16.48-15.28,16.48C223.55,353.11,217.47,345.65,217.47,336.82Zm22.18,0v-.19c0-5.15-2.94-9.38-7.08-9.38-4.33,0-6.91,4.23-6.91,9.2v.18c0,5.25,3,9.39,7.09,9.39C237.08,346,239.65,341.79,239.65,336.82Zm-11.59,43,42.24-57.71a3.52,3.52,0,0,1,3.13-1.65,3.61,3.61,0,0,1,3.68,3.59,4.17,4.17,0,0,1-.82,2.39L234,384.13a3.78,3.78,0,0,1-3.22,1.65,3.53,3.53,0,0,1-3.59-3.59A4.15,4.15,0,0,1,228.06,379.8Zm28.35-10v-.19c0-9,6.16-16.47,15.27-16.47s15.1,7.45,15.1,16.29v.18c0,8.93-6.17,16.48-15.28,16.48S256.41,378.6,256.41,369.77Zm22.18,0v-.19c0-5.15-2.95-9.38-7.09-9.38-4.33,0-6.9,4.23-6.9,9.2v.18c0,5.25,2.94,9.39,7.08,9.39C276,379,278.59,374.74,278.59,369.77Z" style="fill:#263238"></path></g><g id="freepik--Character--inject-269"><path d="M402.28,285.22c-.66-2-36-48.67-38.4-49.57-.27-.12-16.07,11.12-16.07,11.12-.65.87-30.66-5.48-30.66-5.48l-.3,36.21,54.68-1.16s7.38,4.34,14.14,7.88h0a81.11,81.11,0,0,0,8.89,4.31C397.31,289.23,403,287.2,402.28,285.22Z" style="fill:#d3766a"></path><path d="M394.58,288.53a78.31,78.31,0,0,1-8.89-4.31h0c-6.75-3.54-14.14-7.88-14.14-7.88l-12.17.26-19.05-30.74c4.18.74,7.3,1.18,7.51.9,0,0,15.78-11.23,16.06-11.11,2.41.9,37.74,47.57,38.4,49.56S397.31,289.24,394.58,288.53Z" style="fill:#fff"></path><path d="M402.6,285.28c-.69-2-36.18-48.69-38.66-49.62-.93-.35-8.66,4.42-16.13,11.11l22.92,30s21.14,11.2,24,11.92S403.3,287.32,402.6,285.28Z" style="fill:#a6a6a6"></path><path d="M400.23,286c-6.14-7.68-30.19-39.21-35.67-47.26-.05-.06,0-.1.05,0,6.25,7.47,30,39.19,35.75,47.19C400.48,286.1,400.36,286.19,400.23,286Z" style="fill:#263238"></path><path d="M390.73,287a7.94,7.94,0,0,1-1.65-6.13,7.67,7.67,0,0,1,2.85-4.92c.05,0,.11.05.07.09a9.13,9.13,0,0,0-1.17,10.89A.06.06,0,0,1,390.73,287Z" style="fill:#263238"></path><path d="M373.38,278.67c-2.43-3.1-4.08-7.57-3-11.46,0-.15.25-.09.28,0a54.33,54.33,0,0,0,3.14,11.18A.24.24,0,0,1,373.38,278.67Z" style="fill:#263238"></path><path d="M376.16,280.37c-2.43-3.1-4.08-7.57-3-11.46,0-.15.25-.09.28,0a54.33,54.33,0,0,0,3.14,11.18A.24.24,0,0,1,376.16,280.37Z" style="fill:#263238"></path><path d="M378.94,282.07c-2.43-3.1-4.08-7.57-3-11.46,0-.15.25-.09.28,0a54.33,54.33,0,0,0,3.14,11.18A.24.24,0,0,1,378.94,282.07Z" style="fill:#263238"></path><path d="M381.72,283.77c-2.43-3.1-4.08-7.57-3-11.46,0-.15.25-.09.28,0a54.33,54.33,0,0,0,3.14,11.18A.24.24,0,0,1,381.72,283.77Z" style="fill:#263238"></path><path d="M358.65,246.41c-2.67-3.51,2.8-7.66,5.47-4.13S361.31,249.94,358.65,246.41Z" style="fill:#263238"></path><path d="M372,284.67c.89-3.35.31-7,.15-10.37,0-.35-.4-.47-.68-.37a.1.1,0,0,0-.16,0,20.56,20.56,0,0,0-5.84,8.93c-.62,2-.39,5,2.13,5.58S371.48,286.62,372,284.67Zm-2.49,2.11c-3.64,2.28-3.36-2.78-2.84-4.25a21.09,21.09,0,0,1,1.24-2.74,61.64,61.64,0,0,1,3.3-5.3c0,1.68.09,3.34.12,5C371.37,281.5,371.52,285.53,369.51,286.78Z" style="fill:#263238"></path><path d="M360.86,264.31c-1.86,1.8-.53,4.46,1,5.87a20.56,20.56,0,0,0,9.61,4.64c.08,0,.12,0,.13-.11A.48.48,0,0,0,372,274c-1.62-3-3-6.39-5.48-8.8C365.1,263.84,362.61,262.6,360.86,264.31Zm7.78,5.7c.83,1.45,1.59,2.94,2.48,4.36a61.69,61.69,0,0,1-5.55-2.84,22.27,22.27,0,0,1-2.48-1.71c-1.2-1-4-5.19.24-5.11C365.7,264.75,367.65,268.28,368.64,270Z" style="fill:#263238"></path><path d="M315.49,230.19H291s-25.67-12.34-46.35-7.37c-23.7,5.7-26.73,35.48-9,46,22.45,13.34,122.35,10.76,122.35,10.76L336.34,243s-33.22-7-63.35-6l42.5,5.79Z" style="fill:#37474f"></path><path d="M337.78,245.34a.67.67,0,0,1,0-.19.83.83,0,0,0,0-.15l-.09-.36c-.07-.24-.16-.48-.25-.71s-.2-.47-.31-.7a5.4,5.4,0,0,0-.4-.65s0,0-.06,0l0,0-.05,0-.05,0c-3.66-.68-28.48-4.23-32.17-4.65s-7.46-.77-11.19-1.09a223.25,223.25,0,0,0-22.4-.8c-.7,0-1.4,0-2.1.06-.15-.05-.31-.07-.46-.11-.36-.09-.72-.18-1.08-.25-.67-.13-1.35-.22-2-.33-1.42-.21-2.83-.36-4.24-.63a.07.07,0,0,0,0,.14c1.41.31,2.8.72,4.22,1l1.22.26c-2.74.14-5.47.35-8.21.6-.08,0-.09.14,0,.14,3.72-.22,7.47-.25,11.2-.19s7.4.15,11.09.36c7.48.43,14.95,1.1,22.39,1.88,4.18.43,29.49,4.13,33.69,4.3h.05a2.49,2.49,0,0,0,.11.29c.12.23.23.45.36.68s.24.42.37.63l.21.3.1.15c0,.05.1.11.11.16S337.83,245.42,337.78,245.34Z" style="fill:#263238"></path><path d="M350.14,277.35c-1.33-2.13-2.47-4.42-3.7-6.62s-2.45-4.43-3.68-6.64c-2.46-4.41-11.28-19.24-12.15-20.27a.08.08,0,0,0-.14.08c.41,1.15,5.92,11,7.18,13.16,2.54,4.38,5.2,8.67,7.83,13,.75,1.24,1.52,2.45,2.28,3.68s1.57,2.44,2.27,3.7C350.07,277.5,350.19,277.43,350.14,277.35Z" style="fill:#263238"></path><path d="M330.36,247.51c-2.21-.53-4.47-.88-6.69-1.3L317,245q-6.71-1.25-13.43-2.38c-8.94-1.51-17.91-2.76-26.94-3.62-5.09-.49-10.2-.81-15.3-1.19-.11,0-.11.17,0,.17,9.09.41,18.17,1.64,27.17,2.94s17.8,2.68,26.68,4.18q3.77.63,7.52,1.29c2.54.44,5.09,1,7.65,1.31C330.41,247.67,330.45,247.53,330.36,247.51Z" style="fill:#263238"></path><path d="M355.75,404.32c-2.15-.21-55.67-24.26-57.13-26.47-.56-.84,2.49-8.83,6.44-18.39.86-2.07,1.75-4.2,2.68-6.35,6-14,12.61-28.71,12.61-28.71l35.85,16-13.6,28.27-3,6.2s16.38,18.38,17.72,21S357.9,404.54,355.75,404.32Z" style="fill:#d3766a"></path><path d="M355.75,404.32c-2.15-.21-55.67-24.26-57.13-26.47-.68-1,4-12.62,9.12-24.74l34.86,15.55-3,6.2s16.38,18.38,17.72,21S357.9,404.54,355.75,404.32Z" style="fill:#fff"></path><path d="M355.75,404.32c-2.15-.21-55.67-24.26-57.13-26.47-.56-.84,2.49-8.83,6.44-18.39l34.55,15.4s16.38,18.38,17.72,21S357.9,404.54,355.75,404.32Z" style="fill:#a6a6a6"></path><path d="M355.94,401.84c-8.87-4.25-45.06-20.57-54.15-24.1-.07,0-.1,0,0,.06,8.71,4.41,45,20.43,54.12,24.19C356.07,402.07,356.13,401.93,355.94,401.84Z" style="fill:#263238"></path><path d="M354.75,392.36a7.89,7.89,0,0,0-6.35-.22,7.63,7.63,0,0,0-4.16,3.89c0,.05.08.1.11,0a9.14,9.14,0,0,1,10.35-3.6C354.77,392.5,354.82,392.39,354.75,392.36Z" style="fill:#263238"></path><path d="M342.69,377.32c-3.57-1.66-8.3-2.27-11.85-.33-.14.07,0,.27.1.26a53.82,53.82,0,0,1,11.62.54A.25.25,0,0,0,342.69,377.32Z" style="fill:#263238"></path><path d="M345,379.65c-3.57-1.67-8.3-2.27-11.85-.34-.14.08,0,.27.1.27a53.73,53.73,0,0,1,11.61.54A.25.25,0,0,0,345,379.65Z" style="fill:#263238"></path><path d="M347.27,382c-3.57-1.66-8.31-2.26-11.86-.33-.13.07,0,.27.11.26a55.06,55.06,0,0,1,11.61.54A.25.25,0,0,0,347.27,382Z" style="fill:#263238"></path><path d="M349.55,384.3c-3.57-1.66-8.3-2.27-11.85-.33-.14.07,0,.27.1.26a53.7,53.7,0,0,1,11.61.54A.25.25,0,0,0,349.55,384.3Z" style="fill:#263238"></path><path d="M307.9,370.25c-4-1.8-6.83,4.47-2.79,6.27S312,372.05,307.9,370.25Z" style="fill:#263238"></path><path d="M350.88,369.48c-1.14-2.32-4.09-1.88-5.92-.82a20.74,20.74,0,0,0-7.39,7.72.1.1,0,0,0,.07.15c0,.29.17.65.52.58,3.35-.62,7-.86,10.07-2.49C350,373.67,352,371.68,350.88,369.48ZM343,375.13c-1.64.35-3.28.61-4.91,1,1.44-1.5,2.82-3.06,4.41-4.42a23.74,23.74,0,0,1,2.4-1.83c1.32-.83,6.19-2.25,4.79,1.82C349,374,345,374.72,343,375.13Z" style="fill:#263238"></path><path d="M328.05,373.7c2.91,1.89,6.54,2.45,9.83,3.35.34.09.57-.24.56-.53a.11.11,0,0,0,.08-.15,20.68,20.68,0,0,0-6.7-8.32c-1.73-1.22-4.63-1.91-6,.31S326.36,372.6,328.05,373.7Zm-1.24-3c-1.05-4.17,3.68-2.34,4.92-1.4a22.77,22.77,0,0,1,2.24,2c1.47,1.48,2.7,3.15,4,4.77-1.59-.54-3.21-.95-4.82-1.43C331.26,374.08,327.38,373,326.81,370.68Z" style="fill:#263238"></path><path d="M308.55,349.82l40.32,18.23s48-92.1,49.24-120.29c1.07-24-15.64-33.26-69.63-17.74l-13.23.17v9.13c5.8.76,21.29,3.2,21.29,3.2,11.27,4.25,14.9,6,14.72,6.37C323.16,305.65,308.55,349.82,308.55,349.82Z" style="fill:#37474f"></path><path d="M357.87,238.77c-1.63,2.17-3.14,4.42-4.58,6.73a96.7,96.7,0,0,0-27.47-7.24c-2.65-.33-5.32-.56-8-.71-.11,0-.1.16,0,.17a120,120,0,0,1,28,5.32c2.51.77,5,1.67,7.45,2.55-1.73,2.77-3.36,5.61-4.93,8.46a170.18,170.18,0,0,0-7.89,16.46c-1.29,3.11-2.55,6.25-3.66,9.43,0,.09.11.15.15.06q7.39-16.47,16.13-32.24c1.65-3,3.36-5.9,5-8.89C358.06,238.79,357.93,238.68,357.87,238.77Z" style="fill:#263238"></path><path d="M349.75,358.31c-2.35-.92-4.63-2.06-6.93-3.1l-6.93-3.11c-4.6-2.06-20.54-8.67-21.86-9-.09,0-.13.11-.06.16,1,.67,11.3,5.24,13.63,6.24,4.65,2,9.35,3.83,14,5.73,1.34.54,2.69,1.05,4,1.58s2.71,1,4,1.6C349.78,358.47,349.83,358.34,349.75,358.31Z" style="fill:#263238"></path><path d="M357.67,242.93c-3.18,6-5.89,12.37-8.65,18.61s-5.43,12.48-8,18.76q-7.75,18.78-14.46,38c-2.53,7.24-4.9,14.53-7.21,21.84,0,.1.14.14.17,0,4.27-12.92,8.9-25.74,13.73-38.46s9.94-25.28,15.36-37.73q2.28-5.25,4.63-10.46c1.57-3.48,3.21-6.93,4.68-10.45A.13.13,0,0,0,357.67,242.93Z" style="fill:#263238"></path><path d="M320.68,172.82c9.74,18.05,21.85,37.4,30.18,39,6.48,1.27,33.06-3.39,43.72-14.05,2.35-2.35-17.16-18.18-19.13-16.91-5.8,3.74-21.15,6.86-22,6.11-1.16-1-14.62-13.82-23.94-22C317,154.05,315.64,163.49,320.68,172.82Z" style="fill:#d3766a"></path><path d="M401.22,195.8c-3.94,3.75-15,8.26-18.08,8.33s-11.39-18.47-9.89-21.27S389,168.48,394.51,168,405.3,191.91,401.22,195.8Z" style="fill:#d3766a"></path><path d="M375.33,180.46A45.07,45.07,0,0,0,379,167.87c.54-5.21.74-13,3.55-12.83,5.78.37,5.27,19.82,5.27,19.82s-1.6,8.55-7.36,8.69A5.72,5.72,0,0,1,375.33,180.46Z" style="fill:#d3766a"></path><path d="M386.15,170.44c.69,2.79,3,2.08,3,2.08l15.79-2.77s11.33-5.25,10.3-8.38c-1.78-5.4-25.39,5.45-27.63,6.06A2.44,2.44,0,0,0,386.15,170.44Z" style="fill:#d3766a"></path><path d="M395.9,167s1.08-5.7,1.62-7S412,140.7,418.11,135.18c1.51-1.35,2.26-1.91,3-1.75,0,0-18.44,25.68-20.33,28.17-1.09,1.43-2.22,5.85-2.22,5.85Z" style="fill:#c7c7c7"></path><path d="M381.32,160.26h0c-2.13.26-7.34.22-9.12,1.58a5.37,5.37,0,0,0-2.1,5.92,3.71,3.71,0,0,0,.27.68,4.72,4.72,0,0,0,2,2l.41.2a7.8,7.8,0,0,0,2.48.71c.83.08,1.63.11,2.36.2a5.64,5.64,0,0,1,1.36.34l1.19-.59a10.41,10.41,0,0,1,1.85-3.32c1.65-1.69,7.21-3.67,9.26-4.5a3.82,3.82,0,0,0,.76-.36.48.48,0,0,0,.06-.28v-.09a.57.57,0,0,0,0-.12h0c0-.09,0-.19,0-.29l0-.13c-.06-.32-.15-.67-.25-1l0-.12c-.1-.35-.22-.69-.32-.94s-.14-.3-.18-.38l0,0s0,0,0,0C390.93,159.44,383.45,160,381.32,160.26Zm-.54,3.22a2.09,2.09,0,0,1,.54,1c.2,1-.7,2.89-4.05,4.2l-.22.08-.23.08-.14,0-.24.07-.44.1-.28,0a4.31,4.31,0,0,1-.87,0h-.14l-.37-.07-.16,0h0l-.08,0h0l-.07,0h0l-.12-.05-.2-.09-.14-.07,0,0-.12-.07,0,0-.12-.08-.12-.09h0l-.09-.08a2.8,2.8,0,0,1-.47-.53s0,0,0,0a3.44,3.44,0,0,1-.24-.43,3.13,3.13,0,0,1-.2-1.28,3.16,3.16,0,0,1,1.57-2.59,6,6,0,0,1,2.4-.81C378.82,162.29,380.15,162.8,380.78,163.48Z" style="fill:#FFC727"></path><path d="M380.78,163.48a2.84,2.84,0,0,1,.88,3.32c-.74,2.22-5,3.7-7.69,3a2.61,2.61,0,0,1-2-2.82,3.8,3.8,0,0,1,.11-.85,3.13,3.13,0,0,0,.2,1.28,3.44,3.44,0,0,0,.24.43s0,0,0,0a2.8,2.8,0,0,0,.47.53l.09.08h0l.12.09.12.08,0,0,.12.07,0,0,.14.07.2.09.12.05h0l.07,0h0l.08,0h0l.16,0,.37.07h.14a4.31,4.31,0,0,0,.87,0l.28,0,.44-.1.24-.07.14,0,.23-.08.22-.08c3.35-1.31,4.25-3.24,4.05-4.2A2.09,2.09,0,0,0,380.78,163.48Z" style="opacity:0.1"></path><path d="M391.18,159.65c.25.21,1.17,3.09.86,3.43a3.82,3.82,0,0,1-.76.36,3.09,3.09,0,0,0-1.25-2.29c-1.09-1-8.52-.89-8.71-.89C383.45,160,390.93,159.44,391.18,159.65Z" style="opacity:0.1"></path><path d="M395.9,167h0c-.35,0-.6,0-.66,0-.52.63-3.78,4.77-5,6.52-.32.44-.8,1.06-1.32,1.78h0c-1.55,2.13-3.58,5.13-3.69,7.07-.15,2.61,1.58,4.09,4.23,3.6,3.64-.68,6.49-6.47,7.64-9.36a38,38,0,0,0,1.69-6.88,8.84,8.84,0,0,0,.21-2.14,2,2,0,0,0-.51-.17A22,22,0,0,0,395.9,167Zm-.23,5.6c.63.41,1,.83.47,2.63a21.48,21.48,0,0,1-3.64,6.53l-.78,1a4.11,4.11,0,0,1-.38.45c-1.42,1.51-3.47,2-4.19.24-.88-2.08,4.07-8.81,5.26-10S394.94,172.09,395.67,172.57Z" style="fill:#FFC727"></path><path d="M399,167.6a8.84,8.84,0,0,1-.21,2.14c-.2-1.17-1.84-1.64-2.9-1.32-1.22.36-6.79,6.69-7,6.89.52-.72,1-1.34,1.32-1.78,1.27-1.75,4.52-5.89,5-6.52C395.46,166.75,398.76,167.44,399,167.6Z" style="opacity:0.1"></path><path d="M428.88,143.81s.27.66-.85,1.57-14.76,9.2-23.06,13.7l-.48.25-.78.42-.82.43c-.65.33-1.17.6-1.71.82h0a17,17,0,0,1-4.53,1.05c-.52.07-1.1.15-1.76.22h0c-.81.1-1.74.21-2.8.32l-.68-2.51,2.23-.37c.72-.13,1.52-.27,2.21-.42a11.56,11.56,0,0,0,1.76-.45c.14-.08,1.19-.58,2.82-1.36l2.59-1.25.72-.34.39-.19Z" style="fill:#dbdbdb"></path><path d="M399.8,159a.7.7,0,0,1,.52.85.7.7,0,0,1-1.37-.32A.71.71,0,0,1,399.8,159Z" style="fill:#c7c7c7"></path><path d="M399.75,159.21a.5.5,0,0,1-.22,1,.5.5,0,0,1-.38-.59A.51.51,0,0,1,399.75,159.21Z" style="fill:#ebebeb"></path><path d="M389.1,172.52s-5.09,2.29-4.77,5.46,4.78,2.05,5.1,2c-.27.13-4.9,2.35-4.24,5.5s5,1.5,5.25,1.39c-.21.19-3,2.84-2,5.12,1.8,3.91,9.21-2.65,12.68-2.29,0,0,.06,5.95.1,6.12,0,0,7.18-6.1,7.4-10.81a3,3,0,0,0-2.17-3.07s2.53-1.71,2.09-4.21c-.23-1.28-2.48-2.05-2.48-2.05A3.77,3.77,0,0,0,407.5,172a3.08,3.08,0,0,0-2.61-2.37C399.77,168.5,389.1,172.52,389.1,172.52Z" style="fill:#d3766a"></path><path d="M404.55,169.62c.06,0,.06-.08,0-.09a26.76,26.76,0,0,0-15.66,3c-.15.08-.51.8-.34.71C392.91,171.13,399,169.89,404.55,169.62Z" style="fill:#263238"></path><path d="M406.13,175.61c.06,0,.06-.1,0-.1a25.11,25.11,0,0,0-16.88,4.33c-.17.13-.19.41,0,.28C392.7,178,401.14,175.84,406.13,175.61Z" style="fill:#263238"></path><path d="M390.19,187.22c4.85-3.29,10.26-4.7,16-5.34.08,0,.06-.12,0-.13-2.91-.45-6.55.34-9.33,1.2a15.47,15.47,0,0,0-6.82,4.1C390,187.13,390.08,187.29,390.19,187.22Z" style="fill:#263238"></path><path d="M389,172.48c-.18.1.42.34.24.45-1.91,1.19-5.22,3.49-4.61,5.27.5,1.42,2.76,1.73,3.67,1.52l2.3-.55-2,1.31a9.73,9.73,0,0,0-2.31,2.12,3.46,3.46,0,0,0-.83,2.7,2,2,0,0,0,1.8,1.71,6,6,0,0,0,2.94-.58l2.56-1.13-2,1.9a9,9,0,0,0-1.49,1.77,3.79,3.79,0,0,0-.67,2.06,1.79,1.79,0,0,0,1,1.57,4,4,0,0,0,2.2,0A30.48,30.48,0,0,0,396.4,191c.76-.3,1.52-.61,2.3-.88a5.75,5.75,0,0,1,2.42-.44,6.2,6.2,0,0,0-2.34.65c-.75.33-1.48.69-2.21,1a25.74,25.74,0,0,1-4.59,1.89,4.62,4.62,0,0,1-2.64.07,2.55,2.55,0,0,1-1.6-2.27,4.64,4.64,0,0,1,.76-2.56,9.83,9.83,0,0,1,1.63-2l.52.77a6.89,6.89,0,0,1-3.46.72,2.84,2.84,0,0,1-1.76-.81,3.14,3.14,0,0,1-.86-1.71,4.36,4.36,0,0,1,1.05-3.42,10.64,10.64,0,0,1,2.58-2.29l.33.77c-1.18.24-3.73.16-4.78-1.95C382.79,175.63,388,172.91,389,172.48Z" style="fill:#263238"></path><path d="M372.64,181.65l11.68,27.13s-26.69,6.83-35.15,3.42-23.48-26.24-29.64-41c-6.3-15.09,3.29-13,9.74-6.79s23.88,21.78,24.46,21.93S372.64,181.65,372.64,181.65Z" style="fill:#FFC727"></path><path d="M324.9,181.47a1.59,1.59,0,0,0-.83-.84l.92,1.69A1.47,1.47,0,0,0,324.9,181.47ZM338,176a1.58,1.58,0,1,0-.86,2A1.58,1.58,0,0,0,338,176Zm-1.05,1.6a1.08,1.08,0,0,1-.83-2,1.08,1.08,0,1,1,.83,2Zm-9.6-8.73a1.59,1.59,0,0,0-2.07-.85,1.58,1.58,0,1,0,2.07.85Zm-1.05,1.61a1.08,1.08,0,0,1-1.39-.59,1.07,1.07,0,1,1,2-.82A1.09,1.09,0,0,1,326.31,170.5Zm20,25.42a1.57,1.57,0,1,0-.86,2.05A1.56,1.56,0,0,0,346.27,195.92Zm-1,1.6a1.08,1.08,0,0,1-.83-2,1.07,1.07,0,0,1,1.41.58A1.08,1.08,0,0,1,345.23,197.52Zm14.14-7a1.58,1.58,0,1,0-.85,2A1.57,1.57,0,0,0,359.37,190.48Zm-1,1.59a1.08,1.08,0,1,1,.58-1.4A1.08,1.08,0,0,1,358.34,192.07Zm14.14-7a1.57,1.57,0,1,0-.86,2.05A1.58,1.58,0,0,0,372.48,185Zm-1.05,1.6a1.08,1.08,0,1,1,.58-1.4A1.07,1.07,0,0,1,371.43,186.63Zm-35.8,2.16a1.58,1.58,0,1,0-.86,2.05A1.57,1.57,0,0,0,335.63,188.79Zm-1.05,1.6a1.07,1.07,0,1,1,.58-1.4A1.06,1.06,0,0,1,334.58,190.39Zm14.16-7a1.59,1.59,0,0,0-2.07-.86,1.58,1.58,0,1,0,2.07.86Zm-1.05,1.6a1.1,1.1,0,0,1-1.41-.58,1.08,1.08,0,0,1,.59-1.41,1.06,1.06,0,0,1,1.4.58A1.09,1.09,0,0,1,347.69,185Zm19.95,25.43a1.57,1.57,0,1,0-2.91,1.2,1.5,1.5,0,0,0,.87.84h0l1.54-.22A1.54,1.54,0,0,0,367.64,210.38Zm-1,1.59a1.08,1.08,0,0,1-.82-2,1.08,1.08,0,1,1,.82,2Zm14.15-7a1.58,1.58,0,1,0-.86,2A1.58,1.58,0,0,0,380.75,204.93Zm-1.05,1.6a1.08,1.08,0,1,1,.58-1.41A1.09,1.09,0,0,1,379.7,206.53ZM357,203.25a1.57,1.57,0,1,0-.86,2.05A1.57,1.57,0,0,0,357,203.25Zm-1,1.6a1.09,1.09,0,0,1-1.41-.58,1.08,1.08,0,1,1,2-.83A1.1,1.1,0,0,1,356,204.85Zm14.14-7a1.57,1.57,0,1,0-.84,2A1.57,1.57,0,0,0,370.1,197.81Zm-1,1.59a1.08,1.08,0,1,1,.56-1.4A1.07,1.07,0,0,1,369.07,199.4Z" style="opacity:0.2"></path><path d="M372,196.06c-.76-1.86-1.53-3.73-2.31-5.58s-1.49-3.76-2.4-5.55c0-.08-.18,0-.16,0,.55,1.86,1.31,3.68,2,5.49s1.46,3.85,2.2,5.77c1.47,3.8,3.09,7.53,4.77,11.24,0,.09.16,0,.13-.06C374.86,203.6,373.48,199.81,372,196.06Z" style="fill:#263238"></path><path d="M319.53,171.21c6.16,14.74,21.19,37.58,29.64,41a22,22,0,0,0,8.32.92L321.9,159.93C318,159,315.53,161.62,319.53,171.21Z" style="opacity:0.1"></path><path d="M280.66,229.93c.12.17,57.78,1.39,58.36.84.82-.78-4.52-55-12.87-68.44-2.09-3.36-11.91-5.85-16.31-1.29C292.82,178.66,280.23,229.34,280.66,229.93Z" style="fill:#FFC727"></path><path d="M330.8,214.13a1.58,1.58,0,1,0-.86,2.05A1.58,1.58,0,0,0,330.8,214.13Zm-1.05,1.6a1.08,1.08,0,0,1-1.41-.58,1.09,1.09,0,0,1,.59-1.41,1.08,1.08,0,0,1,1.4.59A1.07,1.07,0,0,1,329.75,215.73Zm-12.06,3.85a1.58,1.58,0,1,0-.86,2A1.58,1.58,0,0,0,317.69,219.58Zm-1.05,1.6a1.08,1.08,0,1,1,.58-1.41A1.06,1.06,0,0,1,316.64,221.18ZM304.59,225a1.58,1.58,0,1,0-.86,2A1.57,1.57,0,0,0,304.59,225Zm-1,1.6a1.08,1.08,0,1,1-.83-2,1.08,1.08,0,1,1,.83,2Zm-14.12,3a1.49,1.49,0,0,0-.7.58h.66a1,1,0,0,1,.23-.13,1.08,1.08,0,0,1,1.07.16l.68,0A1.56,1.56,0,0,0,289.43,229.61Zm49.07-8.25a1.47,1.47,0,0,0,0,1.11.51.51,0,0,0,.09.16C338.58,222.22,338.54,221.8,338.5,221.36Zm-10.17,5.34a1.57,1.57,0,1,0-.86,2.06A1.58,1.58,0,0,0,328.33,226.7Zm-1,1.61a1.09,1.09,0,0,1-1.41-.59,1.08,1.08,0,0,1,2-.82A1.1,1.1,0,0,1,327.29,228.31Zm7-37.85a1.07,1.07,0,0,1-.5-2.05l.11,0-.09-.49a.83.83,0,0,0-.21.06,1.58,1.58,0,0,0-.84,2.06,1.56,1.56,0,0,0,1.61.94C334.31,190.78,334.28,190.62,334.25,190.46Zm-11.72,3.77a1.58,1.58,0,1,0-.86,2.05A1.57,1.57,0,0,0,322.53,194.23Zm-1,1.6a1.07,1.07,0,1,1,.58-1.4A1.07,1.07,0,0,1,321.49,195.83Zm-12.07,3.85a1.57,1.57,0,1,0-.86,2A1.57,1.57,0,0,0,309.42,199.68Zm-1.05,1.6a1.08,1.08,0,1,1,.59-1.41A1.08,1.08,0,0,1,308.37,201.28Zm-12,3.84a1.58,1.58,0,1,0-.86,2A1.58,1.58,0,0,0,296.33,205.12Zm-1.05,1.6a1.08,1.08,0,0,1-.83-2,1.08,1.08,0,0,1,.83,2Zm37.88-5.35a1.57,1.57,0,1,0-.84,2A1.57,1.57,0,0,0,333.16,201.37Zm-1,1.59a1.08,1.08,0,0,1-1.41-.58,1.08,1.08,0,1,1,1.41.58Zm-12.06,3.85a1.57,1.57,0,1,0-.86,2.05A1.59,1.59,0,0,0,320.07,206.81Zm-1.05,1.6a1.09,1.09,0,0,1-1.41-.59,1.08,1.08,0,0,1,2-.82A1.09,1.09,0,0,1,319,208.41ZM307,212.25a1.58,1.58,0,1,0-.85,2.05A1.57,1.57,0,0,0,307,212.25Zm-1,1.6a1.09,1.09,0,0,1-1.41-.59,1.08,1.08,0,0,1,2-.82A1.1,1.1,0,0,1,305.93,213.85Zm-12.07,3.84a1.57,1.57,0,1,0-.86,2.05A1.57,1.57,0,0,0,293.86,217.69Zm-1,1.6a1.08,1.08,0,1,1,.58-1.4A1.07,1.07,0,0,1,292.82,219.29Zm34.54-50.4a1.59,1.59,0,0,0-2.07-.85,1.58,1.58,0,1,0,2.07.85Zm-1.05,1.61a1.08,1.08,0,0,1-1.39-.59,1.07,1.07,0,1,1,2-.82A1.09,1.09,0,0,1,326.31,170.5Zm-12,3.83a1.59,1.59,0,0,0-2.07-.85,1.58,1.58,0,1,0,2.07.85Zm-1,1.61a1.09,1.09,0,0,1-1.41-.59,1.08,1.08,0,0,1,2-.82A1.09,1.09,0,0,1,313.22,175.94Zm-12.06,3.84a1.58,1.58,0,1,0-.86,2.05A1.58,1.58,0,0,0,301.16,179.78Zm-1.05,1.6a1.08,1.08,0,0,1-.83-2,1.08,1.08,0,1,1,.83,2Zm24.79.09a1.57,1.57,0,1,0-.85,2A1.57,1.57,0,0,0,324.9,181.47Zm-1,1.59a1.08,1.08,0,0,1-1.41-.58,1.07,1.07,0,0,1,.58-1.41,1.08,1.08,0,1,1,.83,2Zm-12.07,3.85a1.57,1.57,0,1,0-.86,2.05A1.58,1.58,0,0,0,311.8,186.91Zm-1.05,1.6a1.08,1.08,0,1,1,.59-1.41A1.09,1.09,0,0,1,310.75,188.51Zm-12.06,3.84a1.57,1.57,0,1,0-.84,2.05A1.57,1.57,0,0,0,298.69,192.35Zm-1,1.6a1.1,1.1,0,0,1-1.41-.58,1.08,1.08,0,1,1,1.41.58Zm19-32.38a1.57,1.57,0,1,0-.84,2A1.57,1.57,0,0,0,316.63,161.57Zm-1,1.59a1.08,1.08,0,0,1-1.41-.58,1.07,1.07,0,0,1,.58-1.41,1.08,1.08,0,1,1,.83,2Z" style="opacity:0.2"></path><path d="M315.67,169.35C300,182,276.83,191,270.68,189.48c-8.28-2-23.53-15.23-30.81-22.81-2.14-2.22,15.52-18.52,17.81-16.15,2.76,2.87,16.84,18,17.2,18.15.75.42,30.94-6.82,36.41-8.17C320.22,158.3,322.83,163.58,315.67,169.35Z" style="fill:#d3766a"></path><path d="M229.52,154.75c2.13,4.67,10.22,12.53,12.9,13.67s16.49-12.16,16.17-15.13-8.7-18.15-13.38-20.52S227.32,149.91,229.52,154.75Z" style="fill:#d3766a"></path><polygon points="175.66 184.83 220.57 212.36 242.06 162.6 210.26 143.1 175.66 184.83" style="fill:#FFC727"></polygon><polygon points="210.26 143.1 187.2 191.9 175.66 184.83 210.26 143.1" style="fill:#FFC727"></polygon><polygon points="210.26 143.1 187.2 191.9 175.66 184.83 210.26 143.1" style="opacity:0.1"></polygon><path d="M231.17,160.27l1.59.56s1.56-4.39,3.07-8.8a8.73,8.73,0,0,0-5.1-10.78c-2.83-1.17-6.93-.91-9.13,3.66-2.36,4.88-3.34,7.26-3.39,7.36l1.56.64s1-2.44,3.34-7.27c1.7-3.51,4.72-3.77,7-2.84a7.06,7.06,0,0,1,4.14,8.69C232.73,155.89,231.19,160.22,231.17,160.27Z" style="fill:#263238"></path><path d="M186.81,191.18c-.52-1.22-1.11-2.41-1.7-3.6s-1.21-2.35-1.85-3.51l-.09-.16H183c-1.11.11-2.22.21-3.33.36s-2.21.29-3.31.49c1.12,0,2.24,0,3.35-.09s2.22-.12,3.33-.21l-.26-.14c.62,1.17,1.27,2.32,1.93,3.47S186.07,190.08,186.81,191.18Z" style="fill:#fff"></path><path d="M183,184.2c2-2.8,3.92-5.63,5.85-8.46s3.81-5.69,5.72-8.54,3.77-5.73,5.62-8.61l2.77-4.34c.9-1.45,1.83-2.9,2.72-4.36-1,1.39-2,2.81-2.95,4.21l-2.9,4.25c-1.93,2.83-3.82,5.69-5.73,8.54s-3.76,5.73-5.61,8.61S184.81,181.28,183,184.2Z" style="fill:#fff"></path><path d="M230.06,159.38a2.24,2.24,0,1,0,3.08-.74A2.24,2.24,0,0,0,230.06,159.38Z" style="fill:#263238"></path><path d="M217.23,151.51a2.24,2.24,0,1,0,3.08-.73A2.25,2.25,0,0,0,217.23,151.51Z" style="fill:#263238"></path><path d="M251.67,137.85c-.32,2.71-3.32.79-3.32.79s3.66,3.8,2.25,6.46-4.9.11-5.16-.06c.19.2,3.46,3.79,1.77,6.31s-4.89-.44-5.09-.64c.12.25,1.66,3.56-.05,5.19-3,2.8-7.13-5.56-10.3-6.48,0,0-2.15,5.19-2.25,5.33s-4.13-7.88-2.66-12.08a2.84,2.84,0,0,1,3-1.93s-1.62-2.39-.35-4.42c.65-1,2.89-.92,2.89-.92a3.57,3.57,0,0,1,0-3.71c1-1.39,3.08-1.05,3.08-1.05s-.28-2.43,1.18-3.53C239.63,124.9,252.35,132.07,251.67,137.85Z" style="fill:#d3766a"></path><path d="M235.84,130.64s0-.09,0-.07a25.27,25.27,0,0,1,12.65,8.15c.11.13-.06.35-.2.23A51.54,51.54,0,0,0,235.84,130.64Z" style="fill:#263238"></path><path d="M232.35,135.34c-.06,0,0-.11,0-.1A23.76,23.76,0,0,1,245.65,145c.1.17,0,.42-.11.24C243.28,142.13,236.64,137.29,232.35,135.34Z" style="fill:#263238"></path><path d="M242.21,151.13c-3.08-4.6-7.33-7.74-12.16-10.34-.06,0,0-.12,0-.11,2.71.63,5.62,2.61,7.75,4.34a14.65,14.65,0,0,1,4.53,6C242.41,151.11,242.28,151.22,242.21,151.13Z" style="fill:#263238"></path><path d="M248.35,138.64a16.36,16.36,0,0,1,1.67,2.54,5.53,5.53,0,0,1,.77,2.8,1.83,1.83,0,0,1-.54,1.2,2.76,2.76,0,0,1-1.17.67,3.27,3.27,0,0,1-2.57-.63l-1.82-1.29,1.26,1.84a9.1,9.1,0,0,1,1.27,2.67,3.25,3.25,0,0,1-.22,2.66,1.85,1.85,0,0,1-2.18.86,5.6,5.6,0,0,1-2.37-1.54l-1.85-1.9,1.12,2.39a8.31,8.31,0,0,1,.68,2.08,3.54,3.54,0,0,1-.14,2,1.68,1.68,0,0,1-1.45,1,3.72,3.72,0,0,1-1.93-.76,29.61,29.61,0,0,1-3.44-3c-.56-.54-1.12-1.08-1.71-1.59a5.59,5.59,0,0,0-2-1.24,5.91,5.91,0,0,1,1.82,1.4c.54.55,1,1.12,1.57,1.7a25.37,25.37,0,0,0,3.35,3.28,4.3,4.3,0,0,0,2.29,1,2.39,2.39,0,0,0,2.2-1.41,4.32,4.32,0,0,0,.23-2.52,9.1,9.1,0,0,0-.71-2.33l-.73.49a6.58,6.58,0,0,0,2.78,1.85,2.75,2.75,0,0,0,1.83-.08,3,3,0,0,0,1.35-1.2,4.09,4.09,0,0,0,.28-3.37,9.89,9.89,0,0,0-1.44-2.91l-.56.56a3.92,3.92,0,0,0,3.22.61,3.38,3.38,0,0,0,1.41-.9,2.42,2.42,0,0,0,.62-1.56,5.75,5.75,0,0,0-1-3A13.89,13.89,0,0,0,248.35,138.64Z" style="fill:#263238"></path><path d="M257.62,150.45s-.49-21.78-8.91-17.41c-2.5,1.29-11.23,9.6-9.59,11.39,2.11,2.3,6.4-.49,8.81-2.66,0,0-.87,7.43,4.12,9.58A5.4,5.4,0,0,0,257.62,150.45Z" style="fill:#d3766a"></path><path d="M249.43,132.72a11.3,11.3,0,0,0-2.9,1.61,24.82,24.82,0,0,0-2.57,2.13,38.41,38.41,0,0,0-4.49,4.94,6.09,6.09,0,0,0-.86,1.55,2.17,2.17,0,0,0-.14,1,1.46,1.46,0,0,0,.13.54,1.76,1.76,0,0,0,.31.46,2.81,2.81,0,0,0,1.74.86,4.94,4.94,0,0,0,1.81-.16,10.11,10.11,0,0,0,3.1-1.49,22.5,22.5,0,0,0,2.63-2.11l-.64-.34a13.66,13.66,0,0,0,0,2.56,13.16,13.16,0,0,0,.51,2.48,8.61,8.61,0,0,0,1.13,2.27,6.55,6.55,0,0,0,1.78,1.74,7.46,7.46,0,0,1-1.56-1.89,9.07,9.07,0,0,1-.88-2.25,12.19,12.19,0,0,1-.35-2.4,12.75,12.75,0,0,1,.1-2.4l.15-1-.79.64a23,23,0,0,1-2.59,1.94,9.82,9.82,0,0,1-2.84,1.34,2.76,2.76,0,0,1-2.65-.42c-.54-.52,0-1.59.6-2.44a32.27,32.27,0,0,1,2-2.57c.71-.84,1.42-1.67,2.18-2.46A21.48,21.48,0,0,1,249.43,132.72Z" style="fill:#263238"></path><path d="M263.26,153l-23.7,17.63s19.66,19.29,28.69,20.57,33.48-10.94,46.19-20.62c13-9.9,3.66-12.88-5-10.76s-31.58,6.89-32.16,6.72S263.26,153,263.26,153Z" style="fill:#FFC727"></path><path d="M299.09,178.93a1.56,1.56,0,0,0-.89,1.9l.45-.24h0a1.07,1.07,0,0,1,1.78-1l.45-.26A1.56,1.56,0,0,0,299.09,178.93Zm-10.91,6.86a1.42,1.42,0,0,0-.12-.57,1.58,1.58,0,0,0-2.92,1.21,1.47,1.47,0,0,0,.36.52l.52-.22a1,1,0,0,1-.41-.49,1.07,1.07,0,0,1,.58-1.41,1.07,1.07,0,0,1,1.46,1.19Zm-15.28,4a1.58,1.58,0,0,0-1,1.29,5,5,0,0,0,.52-.07,1.08,1.08,0,0,1,.64-.76,1.07,1.07,0,0,1,1.29.4l.51-.12A1.56,1.56,0,0,0,272.9,189.81Zm6.47-23.61a1.07,1.07,0,0,1-1.94.31.34.34,0,0,1-.17,0,3.57,3.57,0,0,1-.49-.38,1.47,1.47,0,0,0,.1.4,1.57,1.57,0,0,0,2.06.83,1.53,1.53,0,0,0,1-1.26Zm-12.69,4.57a1.57,1.57,0,1,0-.84,2A1.57,1.57,0,0,0,266.68,170.77Zm-1,1.59a1.08,1.08,0,1,1,.57-1.4A1.07,1.07,0,0,1,265.65,172.36Zm-12.08,3.85a1.57,1.57,0,1,0-.84,2A1.57,1.57,0,0,0,253.57,176.21Zm-1,1.6a1.1,1.1,0,0,1-1.41-.58,1.08,1.08,0,0,1,.58-1.41,1.07,1.07,0,0,1,1.41.58A1.09,1.09,0,0,1,252.54,177.81Zm64.09-16.24a1.57,1.57,0,1,0-.84,2A1.57,1.57,0,0,0,316.63,161.57Zm-1,1.59a1.08,1.08,0,0,1-1.41-.58,1.07,1.07,0,0,1,.58-1.41,1.08,1.08,0,1,1,.83,2ZM303.54,167a1.57,1.57,0,1,0-2.91,1.2,1.57,1.57,0,0,0,2.05.85A1.59,1.59,0,0,0,303.54,167Zm-1.05,1.6a1.09,1.09,0,0,1-1.41-.58,1.08,1.08,0,0,1,.58-1.41,1.07,1.07,0,0,1,1.41.58A1.09,1.09,0,0,1,302.49,168.61Zm-12.07,3.84a1.57,1.57,0,1,0-.84,2.05A1.58,1.58,0,0,0,290.42,172.45Zm-1,1.6a1.08,1.08,0,0,1-1.4-.58,1.07,1.07,0,1,1,2-.83A1.08,1.08,0,0,1,289.39,174.05Zm-12.06,3.84a1.58,1.58,0,1,0-.86,2.05A1.57,1.57,0,0,0,277.33,177.89Zm-1.05,1.6a1.07,1.07,0,0,1-1.4-.58,1.07,1.07,0,1,1,1.4.58Zm-12.06,3.85a1.58,1.58,0,1,0-.85,2A1.57,1.57,0,0,0,264.22,183.34Zm-1,1.59a1.07,1.07,0,1,1,.58-1.4A1.08,1.08,0,0,1,263.19,184.93Zm5.44-26.64a1.07,1.07,0,0,1-.61,1.31,1.09,1.09,0,0,1-1.41-.59,1.07,1.07,0,0,1,.58-1.4,1,1,0,0,1,.69-.05l-.52-.52a1.61,1.61,0,0,0-.36.1,1.57,1.57,0,0,0,1.2,2.91,1.62,1.62,0,0,0,1-1.23h0ZM256,163.44a1.57,1.57,0,1,0-.84,2.05A1.57,1.57,0,0,0,256,163.44Zm-1,1.6a1.09,1.09,0,0,1-1.41-.59,1.08,1.08,0,0,1,2-.82A1.09,1.09,0,0,1,254.92,165Zm-12.06,3.84a1.49,1.49,0,0,0-.32-.48l-.41.3a1.08,1.08,0,1,1-1.7,1.26l-.39.3a1.57,1.57,0,0,0,2.82-1.38Z" style="opacity:0.2"></path><path d="M256.61,165l4.8-3.68c1.6-1.21,3.18-2.5,4.86-3.59.08-.05.18,0,.11.12-1.41,1.33-3,2.52-4.48,3.75s-3.19,2.6-4.8,3.89c-3.17,2.55-6.44,5-9.75,7.34-.08.06-.16-.06-.09-.12C250.32,170.08,253.41,167.49,256.61,165Z" style="fill:#263238"></path><path d="M306,177.61c-1,.24-2,.5-3,.79l-.54.18,1.18-.72a44.6,44.6,0,0,0,4.09-2.58c.06,0,0-.13-.07-.11a45.5,45.5,0,0,0-4.47,2.37,65.24,65.24,0,0,0-6.56,4c-.07.06,0,.16.09.13a34.15,34.15,0,0,0,4.46-2.27l.52-.15c.47-.13,1-.29,1.42-.45,1-.34,1.91-.71,2.86-1.1C306.08,177.65,306.06,177.6,306,177.61Z" style="fill:#263238"></path><path d="M323.07,170.84c-2.45.3-7.92-3.9-10.21-7.62-.15-.26.11-3.05.26-6.45.09-2.06.14-4.36,0-6.46l13.35,2.52a33.64,33.64,0,0,0-.86,8.14,5.54,5.54,0,0,0,.13.86s0,.08,0,.14C326.15,163.59,326.9,170.37,323.07,170.84Z" style="fill:#d3766a"></path><path d="M325.77,161.83a1,1,0,0,0,0,.14,8.12,8.12,0,0,1-1.36.14c-7.65.23-10-9.08-10.55-11.65l12.6,2.37a33.64,33.64,0,0,0-.86,8.14A7.08,7.08,0,0,0,325.77,161.83Z" style="fill:#263238"></path><path d="M312.15,134.82c-1.57,4.63.47,18.23,3.71,21.34,4.69,4.52,12.57,5.19,16.47-.5,3.77-5.5.79-23.17-2.85-26C324.14,125.43,314.47,128,312.15,134.82Z" style="fill:#d3766a"></path><path d="M323,143.08s-.06.06,0,.09c.2.91.28,2-.49,2.44,0,0,0,.06,0,0C323.42,145.32,323.3,143.9,323,143.08Z" style="fill:#263238"></path><path d="M322,142.29c-1.49.16-1,3.12.33,3S323.21,142.14,322,142.29Z" style="fill:#263238"></path><path d="M328.08,142.14s.08,0,.08.07c.11.92.39,1.95,1.27,2.13,0,0,0,.06,0,.06C328.39,144.41,328,143,328.08,142.14Z" style="fill:#263238"></path><path d="M328.76,141.06c1.45-.33,2,2.6.66,2.91S327.54,141.34,328.76,141.06Z" style="fill:#263238"></path><path d="M320.6,141.11a10.14,10.14,0,0,0,1.08-.58,2,2,0,0,0,1-.79.64.64,0,0,0-.22-.75,1.57,1.57,0,0,0-1.58.08,2.28,2.28,0,0,0-1.17,1.18A.68.68,0,0,0,320.6,141.11Z" style="fill:#263238"></path><path d="M329.73,138.11a10.26,10.26,0,0,1-1.23-.13,1.93,1.93,0,0,1-1.21-.37.61.61,0,0,1-.08-.76,1.57,1.57,0,0,1,1.5-.53,2.35,2.35,0,0,1,1.52.66A.68.68,0,0,1,329.73,138.11Z" style="fill:#263238"></path><path d="M323.4,151.77c.25.18.52.44.85.42a2.38,2.38,0,0,0,.95-.38s.06,0,.05,0a1.25,1.25,0,0,1-1.09.67,1,1,0,0,1-.84-.7S323.36,151.74,323.4,151.77Z" style="fill:#263238"></path><path d="M324,148.88a3.11,3.11,0,0,0,2.29,1.07,3.91,3.91,0,0,0,1.13-.11.73.73,0,0,0,.21-.06l.2-.06a.23.23,0,0,0,.15-.23h0s0-.06,0-.09h0v-.08c-.09-.71-.32-1.77-.32-1.77.28.09,1.68.49,1.61.12a47.77,47.77,0,0,0-2.63-9.25c0-.1-.19-.05-.16,0,.5,2.93,1.51,5.75,2.06,8.69a5.53,5.53,0,0,0-1.54-.23c-.1,0,.48,2,.49,2.37,0,0,0,0,0,0a4.38,4.38,0,0,1-3.38-.51C324,148.74,323.88,148.82,324,148.88Z" style="fill:#263238"></path><path d="M326.9,149.54a3.73,3.73,0,0,1-1.31,1.37,1.7,1.7,0,0,1-1,.22c-.76-.08-.88-.75-.83-1.35a4.18,4.18,0,0,1,.19-.92A4.9,4.9,0,0,0,326.9,149.54Z" style="fill:#263238"></path><path d="M325.59,150.91a1.7,1.7,0,0,1-1,.22c-.76-.08-.88-.75-.83-1.35A1.75,1.75,0,0,1,325.59,150.91Z" style="fill:#ff9bbc"></path><path d="M311.55,147c2.57-.82,3.59-9.57,3.59-9.57s.11,3.69.79,3.58,3.36-5.22,3.55-8.82a28.24,28.24,0,0,0,6.68,3c3.32.87,6.95.53,6.93,0,0-1.67-1.72-6-4-7.42a11.77,11.77,0,0,0-11.73-1A11.39,11.39,0,0,0,310,135.1C309.34,137.8,310.61,147.29,311.55,147Z" style="fill:#263238"></path><path d="M314.7,145.92s-3-4.4-5-3.33.23,7.43,2.55,8.32a2.37,2.37,0,0,0,3.19-1.24Z" style="fill:#d3766a"></path><path d="M310.37,144.39s0,.05,0,.07a6,6,0,0,1,3.05,3.78,1.3,1.3,0,0,0-2-.38s0,.09,0,.09a1.44,1.44,0,0,1,1.6.52,7.45,7.45,0,0,1,.76,1.31c.07.14.34.07.28-.1v0C314.19,147.56,312.61,144.63,310.37,144.39Z" style="fill:#263238"></path><path d="M326.56,126a20.3,20.3,0,0,0-5.43-2.15c-2.13-.46-9-.53-10.74.69s-2.75,7.59-2.87,8.53-.21,6.64,1.72,8.19,3-8.07,6.51-11S326.56,126,326.56,126Z" style="fill:#FFC727"></path><path d="M326.56,126s-7.29,1.36-10.81,4.27-4.57,12.53-6.51,11a4.53,4.53,0,0,1-1.45-3.16c.68-2.77,2.2-7,4.82-9.86,2.44-2.64,6.35-3.74,10.44-3.84A22.5,22.5,0,0,1,326.56,126Z" style="opacity:0.1"></path><path d="M309.3,147.05c.41-2.55,3.63-9.2,6.71-12.89s11.34-5.29,12.46-5.13c2.72.4,3.1,1.83,3.55,1.62s-1.7-3-2.43-3.56-2.7-1.79-3.89-1.87-8.58,0-11.52,2.9-7.47,11.31-7,13.61c.12.55.8,1,1,1.74.21,1,.32,2.21.56,2.94S309.26,147.27,309.3,147.05Z" style="fill:#FFC727"></path><path d="M316.8,132.44a12.13,12.13,0,0,1-1.66-1.46,9.33,9.33,0,0,1-1.38-1.75s-.1,0-.08,0a7.47,7.47,0,0,0,1.23,2,6.11,6.11,0,0,0,1.82,1.36C316.8,132.61,316.86,132.49,316.8,132.44Z" style="fill:#263238"></path><path d="M309.5,144.48c-.05-.19-.16-.36-.23-.55a2.94,2.94,0,0,1-.19-.66,6.08,6.08,0,0,0-.18-1.27,4.6,4.6,0,0,0-.53-.91A1.72,1.72,0,0,1,308,140c0-.06-.08-.07-.08,0a4.27,4.27,0,0,0,.68,2.06,9,9,0,0,1,.24,1.36,2,2,0,0,0,.58,1.14C309.43,144.59,309.52,144.55,309.5,144.48Z" style="fill:#263238"></path><path d="M310.63,141.79a9.73,9.73,0,0,1-.64-.94,7.14,7.14,0,0,1-.47-1c-.13-.34-.24-.69-.36-1s-.35-.8-.48-1.21c0,0-.1,0-.08,0,.13.42.19.87.31,1.31a11,11,0,0,0,.4,1.09,5.68,5.68,0,0,0,.53,1,2.56,2.56,0,0,0,.76.81S310.65,141.81,310.63,141.79Z" style="fill:#263238"></path><path d="M311.79,139.36a7.21,7.21,0,0,1-1.26-1.7c-.32-.61-.61-1.25-.89-1.88,0,0-.09,0-.08,0a8.59,8.59,0,0,0,.71,2,5.07,5.07,0,0,0,.58.87,5,5,0,0,0,.87.72S311.82,139.4,311.79,139.36Z" style="fill:#263238"></path><path d="M313,137a2.47,2.47,0,0,1-.62-.74c-.19-.31-.38-.62-.56-.94s-.35-.61-.53-.91a2.55,2.55,0,0,1-.37-1c0-.05-.09-.05-.09,0a2.64,2.64,0,0,0,.21,1,5.89,5.89,0,0,0,.49,1.05,8.43,8.43,0,0,0,.64,1,1.68,1.68,0,0,0,.78.64A.06.06,0,0,0,313,137Z" style="fill:#263238"></path><path d="M314,134.06a9.34,9.34,0,0,1-.63-.78c-.2-.27-.38-.55-.56-.83s-.38-.59-.55-.89c0-.05-.1,0-.08,0a7.4,7.4,0,0,0,.39,1,9.16,9.16,0,0,0,.55.88,8.3,8.3,0,0,0,.64.8,2.74,2.74,0,0,0,.78.66c.05,0,.11,0,.08-.08A5.1,5.1,0,0,0,314,134.06Z" style="fill:#263238"></path><path d="M318.9,131.16c-.23-.34-.45-.67-.71-1a11.94,11.94,0,0,0-.83-.91,11.48,11.48,0,0,0-1.88-1.52s-.09,0-.06.06c1.13,1.15,2.3,2.25,3.41,3.41C318.87,131.25,318.93,131.2,318.9,131.16Z" style="fill:#263238"></path><path d="M320.64,129.1a5.33,5.33,0,0,0-.8-.91,11.43,11.43,0,0,0-2.09-1.41c-.05,0-.09,0-.05.06.63.51,1.26,1,1.86,1.53a11.23,11.23,0,0,1,.85.84c.27.29.46.64.71.94a0,0,0,0,0,.06,0A2.91,2.91,0,0,0,320.64,129.1Z" style="fill:#263238"></path><path d="M322.87,128.28a5.75,5.75,0,0,0-.73-.9,6.54,6.54,0,0,0-1.78-1.26c-.05,0-.08,0,0,.07a12.52,12.52,0,0,1,1.65,1.44c.26.26.5.54.74.81s.45.61.72.85c0,0,.05,0,0,0A6.12,6.12,0,0,0,322.87,128.28Z" style="fill:#263238"></path><path d="M324.53,127.14c-.25-.25-.52-.48-.78-.71a3.55,3.55,0,0,0-.85-.58s-.07.05,0,.08c.49.46,1,.94,1.45,1.41a8.87,8.87,0,0,1,1.07,1.52,0,0,0,0,0,.05,0A3.24,3.24,0,0,0,324.53,127.14Z" style="fill:#263238"></path><path d="M326.49,126.89a5.53,5.53,0,0,0-1.62-1.22s-.08,0,0,.08a6,6,0,0,1,1.45,1.31,8.63,8.63,0,0,1,1.1,1.63s.06,0,.06,0A4.52,4.52,0,0,0,326.49,126.89Z" style="fill:#263238"></path><path d="M328.91,128.26a3.65,3.65,0,0,0-.18-.41,5.22,5.22,0,0,0-.51-.75,10.08,10.08,0,0,0-1.36-1.25s-.1,0-.05.07a7.63,7.63,0,0,1,1.26,1.28,6.2,6.2,0,0,1,.49.73c.07.12.13.25.2.38a1.66,1.66,0,0,0,.18.38,0,0,0,0,0,.07,0A1,1,0,0,0,328.91,128.26Z" style="fill:#263238"></path><path d="M330.44,128.54a5.11,5.11,0,0,0-.41-.62c-.16-.2-.32-.38-.49-.56l-.54-.54s-.11,0-.06.06a4.55,4.55,0,0,1,.49.58l.44.58c.14.2.29.39.43.58a5.39,5.39,0,0,0,.43.6s.07,0,.06,0A2.72,2.72,0,0,0,330.44,128.54Z" style="fill:#263238"></path></g></svg>
