<svg xmlns="http://www.w3.org/2000/svg" viewBox="0 0 500 500"><g id="freepik--Shadow--inject-2"><ellipse id="freepik--path--inject-2" cx="250" cy="416.24" rx="193.89" ry="11.32" style="fill:#f5f5f5"></ellipse></g><g id="freepik--House--inject-2"><polygon points="95.5 296.74 131.97 258.77 209 258.77 249.18 296.74 95.5 296.74" style="fill:#FFC220"></polygon><polygon points="131.97 257.94 177.26 298.44 95.5 295.91 131.97 257.94" style="opacity:0.1"></polygon><rect x="94.67" y="301.3" width="136.56" height="49.31" style="fill:#FFC220"></rect><rect x="94.67" y="301.3" width="136.56" height="49.31" style="fill:#fff;opacity:0.8;isolation:isolate"></rect><rect x="94.67" y="301.3" width="80.46" height="49.31" style="opacity:0.05"></rect><rect x="147.89" y="308.32" width="78.63" height="29.05" style="fill:#FFC220"></rect><path d="M147.89,308.32v29.05h78.62V308.32Zm75.43,26.31H150.68V311.55h72.64Z" style="fill:#fff;opacity:0.1;isolation:isolate"></path><rect x="147.89" y="308.32" width="29.69" height="29.05" style="opacity:0.1"></rect><rect x="153.31" y="311.55" width="66.6" height="22.58" style="fill:#FFC220"></rect><rect x="153.31" y="311.56" width="66.61" height="22.58" style="fill:#fff;opacity:0.5;isolation:isolate"></rect><rect x="153.31" y="311.55" width="22.16" height="22.58" style="opacity:0.05"></rect><polygon points="171.61 311.56 165.56 334.14 157.31 334.14 163.36 311.56 171.61 311.56" style="fill:#fff;opacity:0.30000000000000004"></polygon><polygon points="219.92 311.56 219.92 331.32 219.16 334.14 210.92 334.14 216.96 311.56 219.92 311.56" style="fill:#fff;opacity:0.30000000000000004"></polygon><polygon points="176.51 311.56 170.47 334.14 168.09 334.14 174.13 311.56 176.51 311.56" style="fill:#fff;opacity:0.30000000000000004"></polygon><polygon points="214.63 311.56 208.58 334.14 207.39 334.14 213.43 311.56 214.63 311.56" style="fill:#fff;opacity:0.30000000000000004"></polygon><rect x="94.59" y="311.69" width="40.25" height="22.72"></rect><rect x="94.59" y="311.69" width="40.25" height="22.72" style="fill:#FFC220"></rect><rect x="94.59" y="311.69" width="40.25" height="22.72" style="fill:#fff;opacity:0.5;isolation:isolate"></rect><polygon points="94.59 311.69 94.59 331.73 99.95 311.69 94.59 311.69" style="fill:#fff;opacity:0.30000000000000004"></polygon><polygon points="105.58 311.69 99.5 334.41 96.78 334.41 102.86 311.69 105.58 311.69" style="fill:#fff;opacity:0.30000000000000004"></polygon><path d="M213.49,334.13h-50.7v1.63h2.31v15.29h1.25v-.9H182.9v.9h1.24v-.9h16.55v.9h1.25v-.9h16.84v.9H220v-.9h16.55v.9h1.25v-.9h16.55v.9h1.24V335.76h2.32v-1.63ZM182.9,349.72H166.35v-1.63H182.9Zm0-2.06H166.35V346H182.9Zm0-2.06H166.35V344H182.9Zm0-2.06H166.35V341.9H182.9Zm0-2.06H166.35v-1.64H182.9Zm0-2.06H166.35v-1.64H182.9Zm0-2.06H166.35v-1.6H182.9Zm17.79,12.36H184.14v-1.63h16.55Zm0-2.06H184.14V346h16.55Zm0-2.06H184.14V344h16.55Zm0-2.06H184.14V341.9h16.55Zm0-2.06H184.14v-1.64h16.55Zm0-2.06H184.14v-1.64h16.55Zm0-2.06H184.14v-1.6h16.55Zm18.09,12.36H201.94v-1.63h16.84Zm0-2.06H201.94V346h16.84Zm0-2.06H201.94V344h16.84Zm0-2.06H201.94V341.9h16.84Zm0-2.06H201.94v-1.64h16.84Zm0-2.06H201.94v-1.64h16.84Zm0-2.06H201.94v-1.6h16.84Zm17.79,12.36H220v-1.63h16.55Zm0-2.06H220V346h16.55Zm0-2.06H220V344h16.55Zm0-2.06H220V341.9h16.55Zm0-2.06H220v-1.64h16.55Zm0-2.06H220v-1.64h16.55Zm0-2.06H220v-1.6h16.55Zm17.8,12.36H237.82v-1.63h16.55Zm0-2.06H237.82V346h16.55Zm0-2.06H237.82V344h16.55Zm0-2.06H237.82V341.9h16.55Zm0-2.06H237.82v-1.64h16.55Zm0-2.06H237.82v-1.64h16.55Zm0-2.06H237.82v-1.6h16.55Z" style="fill:#FFC220"></path><path d="M213.49,334.13h-50.7v1.63h2.31v15.29h1.25v-.9H182.9v.9h1.24v-.9h16.55v.9h1.25v-.9h16.84v.9H220v-.9h16.55v.9h1.25v-.9h16.55v.9h1.24V335.76h2.32v-1.63ZM182.9,349.72H166.35v-1.63H182.9Zm0-2.06H166.35V346H182.9Zm0-2.06H166.35V344H182.9Zm0-2.06H166.35V341.9H182.9Zm0-2.06H166.35v-1.64H182.9Zm0-2.06H166.35v-1.64H182.9Zm0-2.06H166.35v-1.6H182.9Zm17.79,12.36H184.14v-1.63h16.55Zm0-2.06H184.14V346h16.55Zm0-2.06H184.14V344h16.55Zm0-2.06H184.14V341.9h16.55Zm0-2.06H184.14v-1.64h16.55Zm0-2.06H184.14v-1.64h16.55Zm0-2.06H184.14v-1.6h16.55Zm18.09,12.36H201.94v-1.63h16.84Zm0-2.06H201.94V346h16.84Zm0-2.06H201.94V344h16.84Zm0-2.06H201.94V341.9h16.84Zm0-2.06H201.94v-1.64h16.84Zm0-2.06H201.94v-1.64h16.84Zm0-2.06H201.94v-1.6h16.84Zm17.79,12.36H220v-1.63h16.55Zm0-2.06H220V346h16.55Zm0-2.06H220V344h16.55Zm0-2.06H220V341.9h16.55Zm0-2.06H220v-1.64h16.55Zm0-2.06H220v-1.64h16.55Zm0-2.06H220v-1.6h16.55Zm17.8,12.36H237.82v-1.63h16.55Zm0-2.06H237.82V346h16.55Zm0-2.06H237.82V344h16.55Zm0-2.06H237.82V341.9h16.55Zm0-2.06H237.82v-1.64h16.55Zm0-2.06H237.82v-1.64h16.55Zm0-2.06H237.82v-1.6h16.55Z" style="fill:#fff;opacity:0.30000000000000004;isolation:isolate"></path><rect x="200.92" y="353.61" width="52.99" height="57.64" style="fill:#FFC220"></rect><rect x="200.92" y="353.61" width="52.99" height="57.64" style="fill:#fff;opacity:0.30000000000000004;isolation:isolate"></rect><rect x="87.92" y="350.61" width="11.12" height="60.73" style="fill:#FFC220"></rect><rect x="87.92" y="350.61" width="11.12" height="60.73" style="fill:#fff;opacity:0.30000000000000004;isolation:isolate"></rect><rect x="91.97" y="356.24" width="7.07" height="55.1" style="fill:#fff;opacity:0.2;isolation:isolate"></rect><rect x="94.67" y="352.54" width="136.65" height="58.8" style="fill:#FFC220"></rect><rect x="94.67" y="352.54" width="136.65" height="58.8" style="fill:#fff;opacity:0.8;isolation:isolate"></rect><rect x="94.67" y="352.54" width="70.18" height="58.8" style="opacity:0.05"></rect><rect x="127.16" y="365.14" width="26.34" height="22.72"></rect><rect x="100.91" y="365.14" width="24.65" height="22.72"></rect><rect x="100.91" y="365.14" width="24.65" height="22.72" style="fill:#FFC220"></rect><rect x="127.16" y="365.14" width="26.34" height="22.72" style="fill:#FFC220"></rect><rect x="127.16" y="365.14" width="26.34" height="22.72" style="fill:#fff;opacity:0.5;isolation:isolate"></rect><rect x="100.91" y="365.14" width="24.65" height="22.72" style="fill:#fff;opacity:0.5;isolation:isolate"></rect><polygon points="117.67 365.14 111.58 387.86 102.11 387.86 108.19 365.14 117.67 365.14" style="fill:#fff;opacity:0.30000000000000004"></polygon><polygon points="123.29 365.14 117.21 387.86 114.49 387.86 120.57 365.14 123.29 365.14" style="fill:#fff;opacity:0.30000000000000004"></polygon><polygon points="153.5 367.41 153.5 387.86 148.03 387.86 153.5 367.41" style="fill:#fff;opacity:0.30000000000000004"></polygon><polygon points="232.49 387.86 232.49 365.14 237.32 365.14 237.32 361.18 201.66 361.18 201.66 391.88 237.32 391.88 237.32 387.86 232.49 387.86" style="fill:#FFC220"></polygon><rect x="208.88" y="365.14" width="24.65" height="22.72"></rect><rect x="208.88" y="365.14" width="24.65" height="22.72" style="fill:#FFC220"></rect><rect x="208.88" y="365.14" width="24.65" height="22.72" style="fill:#fff;opacity:0.5;isolation:isolate"></rect><polygon points="225.63 365.14 219.55 387.86 210.08 387.86 216.16 365.14 225.63 365.14" style="fill:#fff;opacity:0.30000000000000004"></polygon><polygon points="231.26 365.14 225.18 387.86 222.45 387.86 228.53 365.14 231.26 365.14" style="fill:#fff;opacity:0.30000000000000004"></polygon><rect x="201.65" y="361.18" width="3.37" height="30.7" style="opacity:0.1"></rect><rect x="171.39" y="365.14" width="17.31" height="46.2" style="fill:#FFC220"></rect><rect x="171.39" y="365.14" width="15.72" height="46.2" style="fill:#fff;opacity:0.1;isolation:isolate"></rect><rect x="181.82" y="368.25" width="3.44" height="14.55" style="fill:#fff;opacity:0.2;isolation:isolate"></rect><rect x="248.79" y="355.71" width="8.9" height="55.63" style="fill:#FFC220"></rect><rect x="248.79" y="355.71" width="8.9" height="55.63" style="fill:#fff;opacity:0.30000000000000004;isolation:isolate"></rect><rect x="253.23" y="355.71" width="4.45" height="55.63" style="fill:#fff;opacity:0.2;isolation:isolate"></rect><rect x="92.64" y="350.61" width="165.04" height="5.78" style="fill:#FFC220"></rect><rect x="92.64" y="350.61" width="165.04" height="5.78" style="fill:#fff;opacity:0.30000000000000004;isolation:isolate"></rect><rect x="195.6" y="350.61" width="62.09" height="5.78" style="fill:#fff;opacity:0.2;isolation:isolate"></rect><rect x="87.91" y="295.55" width="167.62" height="5.78" style="fill:#FFC220"></rect><rect x="87.91" y="295.55" width="167.62" height="5.78" style="fill:#fff;opacity:0.30000000000000004;isolation:isolate"></rect><rect x="190.87" y="295.55" width="64.66" height="5.78" style="fill:#fff;opacity:0.2;isolation:isolate"></rect><polygon points="262.49 409.92 82.11 409.92 80.09 411.34 264.51 411.34 262.49 409.92" style="fill:#FFC220"></polygon></g><g id="freepik--Sign--inject-2"><rect x="107.67" y="118.9" width="124.51" height="76.72" rx="5.8" style="fill:#FFC220"></rect><rect x="107.67" y="118.9" width="124.51" height="76.72" rx="5.8" style="fill:#fff;opacity:0.6000000000000001;isolation:isolate"></rect><path d="M170.93,260.84V192.18h-2v68.66a2.37,2.37,0,1,0,2,0Z" style="fill:#FFC220"></path><path d="M170.93,260.84V192.18h-2v68.66a2.37,2.37,0,1,0,2,0Z" style="fill:#fff;opacity:0.6000000000000001;isolation:isolate"></path></g><g id="freepik--Locator--inject-2"><path d="M239.37,110.63h0a12.66,12.66,0,0,0-17.91,17.9l8.95,9,9-9A12.66,12.66,0,0,0,239.37,110.63Zm-4.81,13.1h0a5.86,5.86,0,1,1,0-8.29h0A5.86,5.86,0,0,1,234.56,123.73Z" style="fill:#FFC220"></path></g><g id="freepik--Character--inject-2"><g id="freepik--group--inject-2"><path d="M346,187.21c-4.69.44-11.37,22.92-11.37,22.92l12.9,1.67.65-21.55Z" style="fill:#FFC220"></path><path d="M346,187.21c-4.69.44-11.37,22.92-11.37,22.92l12.9,1.67.65-21.55Z" style="fill:#fff;opacity:0.1;isolation:isolate"></path><path d="M376.89,412.9H386a.66.66,0,0,1,.64.52l1.48,6.66a1.11,1.11,0,0,1-.85,1.31,1.07,1.07,0,0,1-.25,0c-2.94-.05-5.08-.23-8.78-.23-2.27,0-9.14.24-12.28.24s-3.56-3.11-2.27-3.4c5.77-1.25,10.11-3,12-4.65A1.78,1.78,0,0,1,376.89,412.9Z" style="fill:#263238"></path><path d="M338.32,412.66h9.09a.66.66,0,0,1,.64.52l1.48,6.66a1.11,1.11,0,0,1-.86,1.31,1,1,0,0,1-.24,0c-2.94-.05-5.09-.23-8.78-.23-2.28,0-9.14.24-12.29.24s-3.55-3.11-2.26-3.39c5.77-1.26,10.11-3,12-4.66A1.82,1.82,0,0,1,338.32,412.66Z" style="fill:#263238"></path><path d="M376.89,412.9H386a.66.66,0,0,1,.64.52l1.48,6.66a1.11,1.11,0,0,1-.85,1.31,1.07,1.07,0,0,1-.25,0c-2.94-.05-5.08-.23-8.78-.23-2.27,0-9.14.24-12.28.24s-3.56-3.11-2.27-3.4c5.77-1.25,10.11-3,12-4.65A1.78,1.78,0,0,1,376.89,412.9Z" style="fill:#fff;opacity:0.30000000000000004"></path><path d="M338.32,412.66h9.09a.66.66,0,0,1,.64.52l1.48,6.66a1.11,1.11,0,0,1-.86,1.31,1,1,0,0,1-.24,0c-2.94-.05-5.09-.23-8.78-.23-2.28,0-9.14.24-12.29.24s-3.55-3.11-2.26-3.39c5.77-1.26,10.11-3,12-4.66A1.82,1.82,0,0,1,338.32,412.66Z" style="fill:#fff;opacity:0.30000000000000004"></path><path d="M381.71,244.3H342c-3.78,20.63-15.6,104.41-7.12,169.47h13.46S347.06,315,358.94,283c1.36,17.09,15.25,130.66,15.25,130.66h13.7s-2.05-42.72-4.1-83.08C382.5,305.21,381.77,249.52,381.71,244.3Z" style="fill:#263238"></path><path d="M358.94,283a106.09,106.09,0,0,0-4.44,17.2c-1.11-15.21,3.33-31.34,3.33-31.34Z" style="opacity:0.2;isolation:isolate"></path><polygon points="341.64 244.78 381.64 244.78 381.64 249.54 341.13 249.05 341.64 244.78"></polygon><rect x="367.35" y="242.63" width="1.43" height="8.45" style="fill:#263238"></rect><rect x="347.12" y="242.63" width="1.43" height="8.45" style="fill:#263238"></rect><rect x="352.47" y="243.94" width="7.4" height="5.33" style="fill:#fff"></rect><path d="M341.66,245.55h40.1c.91-19.51,6-46,7.38-53.13a1.92,1.92,0,0,0-1.47-2.27c-2-.44-4.09-.82-6.19-1.14a194.73,194.73,0,0,0-28.58-1.92c-4.23,0-6.89.12-6.89.12C341.15,204.6,341.25,232.64,341.66,245.55Z" style="fill:#FFC220"></path><path d="M341.66,245.55h40.1a327.27,327.27,0,0,1,4.09-34.84c1.35-8.32,2.67-15.16,3.29-18.29a1.46,1.46,0,0,0,0-.51,1.91,1.91,0,0,0-1.5-1.76c-2-.44-4.09-.82-6.19-1.14a194.73,194.73,0,0,0-28.58-1.92c-4.23,0-6.89.12-6.89.12C341.15,204.6,341.25,232.64,341.66,245.55Z" style="fill:#fff;opacity:0.30000000000000004;isolation:isolate"></path><path d="M374.79,188.06c-3.44,3.12-11.86,2-11.86,2s-5.26-1.44-4.15-3.08c3.09-.51,4.59-2,5.21-3.81a8.93,8.93,0,0,0,.31-3.53,16.77,16.77,0,0,0-.26-2l10.41-7.71C373.09,175,371.42,184.37,374.79,188.06Z" style="fill:#e4897b"></path><path d="M372.05,174.82c-.41,6.25-5.55,8-8.06,8.32a8.93,8.93,0,0,0,.31-3.53Z" style="opacity:0.2;isolation:isolate"></path><path d="M373.25,184.1l-9.95,4.48-.58-3.59-3.66,1.28a3,3,0,0,0-2,3.15l.41,4,5-2.76,2.51,3.55L377,188.41Z" style="fill:#FFC220"></path><path d="M373.25,184.1l-9.95,4.48-.58-3.59-3.66,1.28a3,3,0,0,0-2,3.15l.41,4,5-2.76,2.51,3.55L377,188.41Z" style="fill:#fff;opacity:0.1;isolation:isolate"></path><path d="M350.05,159.25c-1.95.76,13.38.91,13.38.91S358.6,155.91,350.05,159.25Z" style="fill:#FFC220"></path><path d="M350.05,159.25c-1.95.76,13.38.91,13.38.91S358.6,155.91,350.05,159.25Z" style="opacity:0.2;isolation:isolate"></path><path d="M356.74,154.13s-3.4,9.87,1.37,14.39,7.21-14,7.21-14Z" style="fill:#263238"></path><path d="M356.09,174.12c.1.35.22.69.35,1a10.14,10.14,0,0,0,5.12,5.43,9.32,9.32,0,0,0,6.71.53,9.15,9.15,0,0,0,4.11-2.65c3.51-3.82,3.26-8.06,3.41-15.27a9.87,9.87,0,0,0-14-9.34C354.88,157,354.3,167.7,356.09,174.12Z" style="fill:#e4897b"></path><path d="M364.93,165.61c.07.58-.26,1.07-.65,1.08s-.71-.45-.74-1,.28-1.07.66-1.08S364.91,165,364.93,165.61Z" style="fill:#263238"></path><path d="M358.3,165.86c.07.58-.27,1.07-.65,1.08s-.71-.45-.74-1,.28-1.07.66-1.08S358.28,165.3,358.3,165.86Z" style="fill:#263238"></path><path d="M360.42,166.07a21,21,0,0,1-2.61,5.12,3.43,3.43,0,0,0,2.84.42Z" style="fill:#de5753"></path><path d="M355.74,163.12a.36.36,0,0,0,.36,0,2.79,2.79,0,0,1,2.46-.39.34.34,0,0,0,.45-.18.35.35,0,0,0-.18-.45h0a3.4,3.4,0,0,0-3.1.45.34.34,0,0,0-.11.47h0A.43.43,0,0,0,355.74,163.12Z" style="fill:#263238"></path><path d="M366.15,162.91a.42.42,0,0,0,.18-.08.34.34,0,0,0,0-.48h0a3.42,3.42,0,0,0-3.08-.66.33.33,0,0,0-.21.43h0a.35.35,0,0,0,.43.22h0a2.76,2.76,0,0,1,2.43.56A.35.35,0,0,0,366.15,162.91Z" style="fill:#263238"></path><path d="M370.17,154.39l-.42,3.18a2.37,2.37,0,0,1,1.16,3c-1.06,2.66.42,6.82,2.45,8.5,0,0,.08-1.16,1.05-.88s.65,6.31-1.29,9.17c0,0,2.91-2.57,4.6-8.89,1.56-5.83,1.8-10.71.62-13Z" style="fill:#263238"></path><path d="M379.16,169a6.83,6.83,0,0,1-3.8,3.61c-2.25.85-3.59-1.11-3.15-3.35.42-2,2.07-4.88,4.42-4.75S380,166.92,379.16,169Z" style="fill:#e4897b"></path><path d="M361.74,174.53a.25.25,0,0,1-.24-.19.24.24,0,0,1,.18-.3,5.26,5.26,0,0,0,2.83-2.22.26.26,0,0,1,.35-.08.25.25,0,0,1,.08.34,5.6,5.6,0,0,1-3.14,2.44Z" style="fill:#263238"></path><path d="M355.07,157.3s2.88-7.71,4.14-8.64,5.5-1.67,9.38-1.12,9.37,4.18,10.45,6,0,8.73,0,8.73l-8.56-2.51Z" style="fill:#FFC220"></path><path d="M355.07,157.3s2.88-7.71,4.14-8.64,5.5-1.67,9.38-1.12,9.37,4.18,10.45,6,0,8.73,0,8.73l-8.56-2.51Z" style="fill:#fff;opacity:0.1;isolation:isolate"></path><path d="M350.05,159.25s7.9-3.91,11.61-4,9,2.23,10.31,4.09c0,0-6.59,2-9.29.83A23.38,23.38,0,0,0,350.05,159.25Z" style="fill:#FFC220"></path><polygon points="358.06 153.68 361.98 150.31 361.57 152.43 366.33 152.41 366.14 153.62 358.06 153.68" style="fill:#fff"></polygon><polygon points="362.41 151.03 366.44 150.98 366.25 151.82 362.21 151.81 362.41 151.03" style="fill:#fff"></polygon><rect x="303.31" y="204.93" width="54.73" height="38.88" style="fill:#263238"></rect><rect x="303.31" y="204.93" width="54.73" height="38.88" style="fill:#fff;opacity:0.30000000000000004;isolation:isolate"></rect><rect x="303.31" y="204.93" width="32.44" height="38.88" style="fill:#fff;opacity:0.1;isolation:isolate"></rect><rect x="345.04" y="204.93" width="4.58" height="4.08" style="fill:#fff;opacity:0.30000000000000004;isolation:isolate"></rect><rect x="345.04" y="240.22" width="4.58" height="3.59" style="fill:#fff;opacity:0.30000000000000004;isolation:isolate"></rect><rect x="322.01" y="235.39" width="11.39" height="6.32" style="fill:#fff;opacity:0.30000000000000004;isolation:isolate"></rect><rect x="305.04" y="206.91" width="8.42" height="3.22" style="fill:#fff;opacity:0.30000000000000004;isolation:isolate"></rect><path d="M378.94,212s-1.56,8.91-3,10.4c-3.17,3.34-25.57,5.64-25.57,5.64l.35,5s23.45-1.44,27.89-4.64c3.67-2.64,7.94-15.54,7.94-15.54Z" style="fill:#e4897b"></path><path d="M351.35,229.54s-.74-2.51-1.39-3-9.84-.47-10.31-.47.28,7.52.93,8.27,8.17,0,9.38-.28S352,231.67,351.35,229.54Z" style="fill:#e4897b"></path><path d="M387.67,190.15c9.24,3.27-3.13,32.36-3.13,32.36L376.37,220S380.9,187.75,387.67,190.15Z" style="fill:#FFC220"></path><path d="M387.67,190.15c9.24,3.27-3.13,32.36-3.13,32.36L376.37,220S380.9,187.75,387.67,190.15Z" style="fill:#fff;opacity:0.1;isolation:isolate"></path><polygon points="376.06 217.28 385.99 220.62 384.97 223.59 375.5 219.97 376.06 217.28" style="fill:#FFC220"></polygon><polygon points="366.63 203.43 370.83 200.42 370.24 202.49 374.99 202.89 374.69 204.08 366.63 203.43" style="fill:#fff"></polygon><polygon points="371.2 201.18 375.22 201.47 374.96 202.3 370.93 201.93 371.2 201.18" style="fill:#fff"></polygon></g></g></svg>